<svg width="20" height="20" viewBox="0 0 20 20" fill="none" xmlns="http://www.w3.org/2000/svg">
<path d="M7.63672 4.70508C7.6211 4.57618 7.46289 4.52149 7.3711 4.61328L6.51758 5.4668L3.90625 2.85743C3.87689 2.82835 3.83723 2.81203 3.7959 2.81203C3.75457 2.81203 3.71492 2.82835 3.68555 2.85743L2.85743 3.6836C2.82835 3.71296 2.81203 3.75262 2.81203 3.79395C2.81203 3.83528 2.82835 3.87493 2.85743 3.9043L5.46875 6.51563L4.61133 7.37305C4.59068 7.39381 4.57626 7.41994 4.56973 7.44848C4.56319 7.47702 4.5648 7.50683 4.57436 7.5345C4.58393 7.56217 4.60107 7.58661 4.62383 7.60503C4.64659 7.62344 4.67407 7.6351 4.70313 7.63868L7.83203 8.00782C7.93164 8.01953 8.01758 7.93555 8.00586 7.83399L7.63672 4.70508ZM7.83399 11.9941L4.70313 12.3633C4.57422 12.3789 4.51953 12.5371 4.61133 12.6289L5.46875 13.4863L2.85743 16.0938C2.82835 16.1231 2.81203 16.1628 2.81203 16.2041C2.81203 16.2454 2.82835 16.2851 2.85743 16.3145L3.68555 17.1406C3.7461 17.2012 3.84571 17.2012 3.90625 17.1406L6.51758 14.5313L7.3711 15.3848C7.39185 15.4054 7.41799 15.4198 7.44653 15.4264C7.47507 15.4329 7.50487 15.4313 7.53255 15.4217C7.56022 15.4122 7.58466 15.395 7.60307 15.3723C7.62149 15.3495 7.63315 15.322 7.63672 15.293L8.00586 12.166C8.01758 12.0664 7.9336 11.9824 7.83399 11.9941ZM12.166 8.00586L15.2969 7.63672C15.4258 7.6211 15.4805 7.46289 15.3887 7.3711L14.5313 6.51563L17.1426 3.90625C17.2031 3.84571 17.2031 3.7461 17.1426 3.68555L16.3145 2.85938C16.2851 2.8303 16.2454 2.81399 16.2041 2.81399C16.1628 2.81399 16.1231 2.8303 16.0938 2.85938L13.4824 5.4668L12.6289 4.61328C12.6082 4.59263 12.582 4.57822 12.5535 4.57168C12.5249 4.56515 12.4951 4.56675 12.4675 4.57632C12.4398 4.58588 12.4153 4.60302 12.3969 4.62578C12.3785 4.64855 12.3669 4.67602 12.3633 4.70508L11.9941 7.83203C11.9824 7.9336 12.0664 8.01758 12.166 8.00586ZM14.5313 13.4844L15.3887 12.627C15.4093 12.6062 15.4237 12.5801 15.4303 12.5515C15.4368 12.523 15.4352 12.4932 15.4256 12.4655C15.4161 12.4378 15.3989 12.4134 15.3762 12.395C15.3534 12.3766 15.3259 12.3649 15.2969 12.3613L12.168 11.9922C12.0684 11.9805 11.9824 12.0645 11.9941 12.166L12.3633 15.2949C12.3789 15.4238 12.5371 15.4785 12.6289 15.3867L13.4824 14.5332L16.0938 17.1426C16.1543 17.2031 16.2539 17.2031 16.3145 17.1426L17.1426 16.3164C17.2031 16.2559 17.2031 16.1563 17.1426 16.0957L14.5313 13.4844Z" fill="white"/>
</svg>
