<svg width="24" height="24" viewBox="0 0 24 24" fill="none" xmlns="http://www.w3.org/2000/svg">
<path d="M17.2931 9C17.9656 8.65344 18.5021 8.09101 18.8165 7.40299C19.131 6.71496 19.2052 5.94123 19.0272 5.20598C18.8493 4.47073 18.4294 3.81659 17.8351 3.34854C17.2408 2.88049 16.5065 2.62568 15.75 2.625H9C8.24351 2.62568 7.50919 2.88049 6.91488 3.34854C6.32057 3.81659 5.90074 4.47073 5.72277 5.20598C5.54479 5.94123 5.619 6.71496 5.93347 7.40299C6.24794 8.09101 6.78444 8.65344 7.45688 9C6.89362 9.29023 6.42344 9.73315 6.10014 10.2781C5.77684 10.823 5.61347 11.448 5.62873 12.0814C5.64399 12.7149 5.83726 13.3312 6.18643 13.86C6.53559 14.3887 7.02655 14.8085 7.60313 15.0712C7.01852 15.3847 6.52751 15.8475 6.18019 16.4127C5.83286 16.9778 5.64164 17.6249 5.62604 18.288C5.61044 18.9512 5.77101 19.6066 6.09138 20.1874C6.41175 20.7682 6.88044 21.2537 7.44966 21.5942C8.01888 21.9348 8.66824 22.1183 9.33152 22.126C9.99479 22.1337 10.6482 21.9653 11.2252 21.638C11.8022 21.3108 12.282 20.8363 12.6157 20.2631C12.9495 19.6898 13.1252 19.0383 13.125 18.375V14.1178C13.44 14.5102 13.8387 14.8272 14.2921 15.0456C14.7454 15.264 15.2418 15.3783 15.745 15.3801C16.2482 15.3819 16.7454 15.2711 17.2003 15.056C17.6551 14.8408 18.0561 14.5266 18.3739 14.1364C18.6916 13.7463 18.9181 13.29 19.0368 12.801C19.1554 12.312 19.1633 11.8026 19.0596 11.3102C18.956 10.8178 18.7436 10.3548 18.438 9.95508C18.1323 9.55535 17.7412 9.22903 17.2931 9ZM18.375 6C18.375 6.69619 18.0984 7.36387 17.6062 7.85616C17.1139 8.34844 16.4462 8.625 15.75 8.625H13.125V3.375H15.75C16.4462 3.375 17.1139 3.65156 17.6062 4.14384C18.0984 4.63613 18.375 5.30381 18.375 6ZM13.125 9.375H13.6322C13.4458 9.52578 13.2758 9.69578 13.125 9.88219V9.375ZM6.375 6C6.375 5.30381 6.65156 4.63613 7.14385 4.14384C7.63613 3.65156 8.30381 3.375 9 3.375H12.375V8.625H9C8.30381 8.625 7.63613 8.34844 7.14385 7.85616C6.65156 7.36387 6.375 6.69619 6.375 6ZM12.375 18.375C12.375 18.9683 12.1991 19.5484 11.8694 20.0417C11.5398 20.5351 11.0712 20.9196 10.5231 21.1466C9.97487 21.3737 9.37167 21.4331 8.78973 21.3174C8.20779 21.2016 7.67324 20.9159 7.25368 20.4963C6.83412 20.0768 6.5484 19.5422 6.43264 18.9603C6.31689 18.3783 6.3763 17.7751 6.60336 17.227C6.83042 16.6788 7.21494 16.2102 7.70829 15.8806C8.20164 15.5509 8.78166 15.375 9.375 15.375H12.375V18.375ZM12.375 14.625H9C8.30381 14.625 7.63613 14.3484 7.14385 13.8562C6.65156 13.3639 6.375 12.6962 6.375 12C6.375 11.3038 6.65156 10.6361 7.14385 10.1438C7.63613 9.65156 8.30381 9.375 9 9.375H12.375V14.625ZM15.75 14.625C15.2308 14.625 14.7233 14.471 14.2916 14.1826C13.8599 13.8942 13.5235 13.4842 13.3248 13.0045C13.1261 12.5249 13.0742 11.9971 13.1754 11.4879C13.2767 10.9787 13.5267 10.511 13.8938 10.1438C14.261 9.77673 14.7287 9.52672 15.2379 9.42544C15.7471 9.32415 16.2749 9.37614 16.7545 9.57482C17.2342 9.7735 17.6442 10.1099 17.9326 10.5416C18.221 10.9733 18.375 11.4808 18.375 12C18.375 12.6962 18.0984 13.3639 17.6062 13.8562C17.1139 14.3484 16.4462 14.625 15.75 14.625Z" fill="white"/>
</svg>
