<svg width="24" height="24" viewBox="0 0 24 24" fill="none" xmlns="http://www.w3.org/2000/svg">
<path d="M12.593 23.258L12.582 23.26L12.511 23.295L12.491 23.299L12.477 23.295L12.406 23.26C12.3953 23.2567 12.3873 23.2583 12.382 23.265L12.378 23.275L12.361 23.703L12.366 23.723L12.376 23.736L12.48 23.81L12.495 23.814L12.507 23.81L12.611 23.736L12.623 23.72L12.627 23.703L12.61 23.276C12.6073 23.2653 12.6017 23.2593 12.593 23.258ZM12.858 23.145L12.845 23.147L12.66 23.24L12.65 23.25L12.647 23.261L12.665 23.691L12.67 23.703L12.678 23.71L12.879 23.803C12.8917 23.8063 12.9013 23.8037 12.908 23.795L12.912 23.781L12.878 23.167C12.8747 23.155 12.868 23.1477 12.858 23.145ZM12.143 23.147C12.1386 23.1443 12.1333 23.1435 12.1283 23.1446C12.1233 23.1457 12.1188 23.1487 12.116 23.153L12.11 23.167L12.076 23.781C12.0767 23.793 12.0823 23.801 12.093 23.805L12.108 23.803L12.309 23.71L12.319 23.702L12.323 23.691L12.34 23.261L12.337 23.249L12.327 23.239L12.143 23.147Z" fill="#ABABAB"/>
<path d="M7.02399 2.31C7.7753 2.56353 8.48982 2.91525 9.14899 3.356C10.0805 3.11757 11.0384 2.99796 12 3C12.993 3 13.951 3.124 14.849 3.355C15.5079 2.91467 16.2221 2.5633 16.973 2.31C17.67 2.073 18.663 1.689 19.253 2.342C19.653 2.786 19.753 3.53 19.824 4.098C19.904 4.732 19.923 5.558 19.713 6.378C20.516 7.415 21 8.652 21 10C21 12.042 19.894 13.815 18.257 15.043C17.4688 15.6259 16.5951 16.0833 15.667 16.399C15.881 16.889 16 17.431 16 18V21C16 21.2652 15.8946 21.5196 15.7071 21.7071C15.5196 21.8946 15.2652 22 15 22H8.99999C8.73477 22 8.48042 21.8946 8.29288 21.7071C8.10534 21.5196 7.99999 21.2652 7.99999 21V20.009C7.04499 20.126 6.24399 20.022 5.56299 19.733C4.85099 19.431 4.35499 18.963 3.98199 18.515C3.62799 18.091 3.24199 17.135 2.68399 16.949C2.55936 16.9075 2.44413 16.8419 2.34487 16.7558C2.24562 16.6698 2.16427 16.5651 2.1055 16.4476C1.98678 16.2104 1.96718 15.9357 2.05099 15.684C2.13479 15.4323 2.31515 15.2242 2.55239 15.1055C2.78962 14.9868 3.06429 14.9672 3.31599 15.051C3.98199 15.273 4.41599 15.753 4.71299 16.139C5.19299 16.759 5.58299 17.569 6.34299 17.892C6.65599 18.025 7.11499 18.112 7.83299 18.014L7.99999 17.98C8.00229 17.4358 8.1156 16.8979 8.33299 16.399C7.40486 16.0833 6.53118 15.6259 5.74299 15.043C4.10599 13.815 2.99999 12.043 2.99999 10C2.99999 8.654 3.48299 7.418 4.28399 6.382C4.07399 5.562 4.09199 4.734 4.17199 4.099L4.17699 4.061C4.24999 3.479 4.33499 2.794 4.74299 2.342C5.33299 1.689 6.32699 2.074 7.02298 2.311L7.02399 2.31Z" fill="#ABABAB"/>
</svg>
