<svg width="24" height="24" viewBox="0 0 24 24" fill="none" xmlns="http://www.w3.org/2000/svg">
<path d="M4.513 19.487C7.025 21.879 10.016 20.922 11.213 19.953C11.831 19.452 12.11 19.128 12.349 18.888C13.186 18.111 13.133 17.333 12.589 16.711C12.37 16.462 10.973 15.12 9.633 13.744C8.939 13.05 8.461 12.56 8.051 12.164C7.504 11.618 7.025 10.992 6.307 11.01C5.649 11.01 5.171 11.59 4.572 12.189C3.884 12.877 3.376 13.744 3.197 14.522C2.658 16.795 3.496 18.41 4.513 19.487ZM4.513 19.487L2 21.999M19.487 4.515C16.974 2.121 13.993 3.095 12.797 4.065C12.177 4.567 11.899 4.891 11.659 5.131C10.822 5.909 10.875 6.687 11.42 7.309C11.498 7.399 11.73 7.629 12.055 7.953M19.487 4.515C20.504 5.592 21.353 7.225 20.814 9.5C20.634 10.278 20.126 11.145 19.438 11.834C18.84 12.432 18.361 13.013 17.703 13.013C16.985 13.031 16.613 12.511 16.064 11.965M19.487 4.515L22 2M12.055 7.953C12.636 8.528 13.518 9.395 14.376 10.277C15.07 10.971 15.654 11.569 16.064 11.964L14.502 13.488M12.055 7.953L10.512 9.505" stroke="white" stroke-width="1.5" stroke-linecap="round" stroke-linejoin="round"/>
</svg>
