<svg width="24" height="24" viewBox="0 0 24 24" fill="none" xmlns="http://www.w3.org/2000/svg">
<path d="M1.86 10.131L13.869 22.14C13.9749 22.2458 14.1101 22.3175 14.2571 22.3459C14.4042 22.3742 14.5563 22.3579 14.694 22.299L20.634 19.755C20.7466 19.7066 20.8455 19.6314 20.9223 19.5359C20.9991 19.4404 21.0513 19.3276 21.0744 19.2073C21.0975 19.087 21.0907 18.9628 21.0547 18.8457C21.0188 18.7286 20.9547 18.6221 20.868 18.5355L17.262 14.928C17.1508 14.8167 17.0073 14.7431 16.852 14.7178C16.6967 14.6925 16.5373 14.7167 16.3965 14.787L14.7585 15.606L8.3925 9.24L9.213 7.602C9.28347 7.46133 9.30791 7.30207 9.28288 7.14675C9.25784 6.99142 9.1846 6.8479 9.0735 6.7365L5.4645 3.1305C5.37779 3.04389 5.27118 2.97985 5.15399 2.94399C5.0368 2.90812 4.91261 2.90151 4.79228 2.92475C4.67195 2.94799 4.55915 3.00036 4.46374 3.07728C4.36833 3.1542 4.29323 3.25333 4.245 3.366L1.6995 9.306C1.64062 9.44367 1.6243 9.59582 1.65264 9.74285C1.68097 9.88989 1.75267 10.0251 1.8585 10.131H1.86ZM3.2775 9.429L5.1885 4.974L7.6305 7.4175L7.053 8.571L6.57 9.537L7.3335 10.302L13.698 16.6665L14.463 17.4315L15.429 16.947L16.584 16.371L19.026 18.8115L14.571 20.721L3.2775 9.429ZM12 7.5V6C13.5913 6 15.1174 6.63214 16.2426 7.75736C17.3679 8.88258 18 10.4087 18 12H16.5C16.5 10.8065 16.0259 9.66193 15.182 8.81802C14.3381 7.97411 13.1935 7.5 12 7.5ZM12 3V1.5C14.7848 1.5 17.4555 2.60625 19.4246 4.57538C21.3938 6.54451 22.5 9.21523 22.5 12H21C21 9.61305 20.0518 7.32387 18.364 5.63604C16.6761 3.94821 14.387 3 12 3Z" fill="#FF004F"/>
</svg>
