<svg width="10" height="10" viewBox="0 0 10 10" fill="none" xmlns="http://www.w3.org/2000/svg">
<g clip-path="url(#clip0_2_15)">
<path d="M1.88041 8.11958C2.92708 9.11625 4.17333 8.7175 4.67208 8.31375C4.92958 8.105 5.04583 7.97 5.14541 7.87C5.49416 7.54625 5.47208 7.22208 5.24541 6.96292C5.15416 6.85917 4.57208 6.3 4.01374 5.72667C3.72458 5.4375 3.52541 5.23333 3.35458 5.06833C3.12666 4.84083 2.92708 4.58 2.62791 4.5875C2.35374 4.5875 2.15458 4.82917 1.90499 5.07875C1.61833 5.36542 1.40666 5.72667 1.33208 6.05083C1.10749 6.99792 1.45666 7.67083 1.88041 8.11958ZM1.88041 8.11958L0.833328 9.16625M8.11958 1.88125C7.07249 0.88375 5.83041 1.28958 5.33208 1.69375C5.07374 1.90292 4.95791 2.03792 4.85791 2.13792C4.50916 2.46208 4.53124 2.78625 4.75833 3.04542C4.79083 3.08292 4.88749 3.17875 5.02291 3.31375M8.11958 1.88125C8.54333 2.33 8.89708 3.01042 8.67249 3.95833C8.59749 4.2825 8.38583 4.64375 8.09916 4.93083C7.84999 5.18 7.65041 5.42208 7.37624 5.42208C7.07708 5.42958 6.92208 5.21292 6.69333 4.98542M8.11958 1.88125L9.16666 0.833333M5.02291 3.31375C5.26499 3.55333 5.63249 3.91458 5.98999 4.28208C6.27916 4.57125 6.52249 4.82042 6.69333 4.985L6.04249 5.62M5.02291 3.31375L4.37999 3.96042" stroke="#FF004F" stroke-width="1.5" stroke-linecap="round" stroke-linejoin="round"/>
</g>
<defs>
<clipPath id="clip0_2_15">
<rect width="10" height="10" fill="white"/>
</clipPath>
</defs>
</svg>
